<?xml version="1.0" encoding="UTF-8"?><svg id="Layer_2" xmlns="http://www.w3.org/2000/svg" viewBox="0 0 348.17 133.91"><defs><style>.cls-1{fill:#656c73;letter-spacing:-.01em;}.cls-1,.cls-2{font-family:GoogleSansDisplay-Regular, 'Google Sans Display';font-size:58px;}.cls-2,.cls-3{fill:#4285f4;}.cls-4{letter-spacing:-.03em;}.cls-5{fill:#fbbc04;}.cls-6{fill:#ea4335;}.cls-7{fill:#0f9d58;}.cls-8{letter-spacing:0em;}.cls-9{letter-spacing:-.02em;}.cls-10{letter-spacing:0em;}.cls-11{letter-spacing:0em;}.cls-12{letter-spacing:0em;}.cls-13{letter-spacing:0em;}</style></defs><g id="Linkedin_-_Hero_Image"><g id="Logo"><g><text class="cls-1" transform="translate(172.91 50.28)"><tspan x="0" y="0">GDG</tspan></text><text class="cls-2" transform="translate(0 119.24)"><tspan x="0" y="0">Oh</tspan><tspan class="cls-11" x="79.81" y="0">i</tspan><tspan x="92.51" y="0">o </tspan><tspan class="cls-9" x="139.43" y="0">D</tspan><tspan class="cls-10" x="179.22" y="0">e</tspan><tspan class="cls-8" x="210.54" y="0">v</tspan><tspan class="cls-4" x="239.65" y="0">F</tspan><tspan class="cls-13" x="268.65" y="0">e</tspan><tspan class="cls-12" x="300.84" y="0">s</tspan><tspan x="327.41" y="0">t</tspan></text><g><path class="cls-6" d="M68.06,27.42l18.34-10.59c4.32-2.49,5.79-8.01,3.3-12.32-2.49-4.31-8.01-5.79-12.32-3.3l-31.68,18.29,22.37,7.92Z"/><path class="cls-3" d="M81.88,54.63c3.12,0,6.15-1.62,7.82-4.51,2.49-4.31,1.01-9.83-3.3-12.32l-31.68-18.29c-4.32-2.49-9.83-1.01-12.32,3.3-2.49,4.32-1.01,9.83,3.3,12.32l31.68,18.29c1.42,.82,2.97,1.21,4.5,1.21Z"/><path class="cls-5" d="M113.39,54.63c1.53,0,3.08-.39,4.5-1.21l31.68-18.29-22.08-8.08-18.62,10.75c-4.32,2.49-5.79,8.01-3.3,12.32,1.67,2.89,4.7,4.51,7.82,4.51Z"/><path class="cls-7" d="M145.06,36.34c3.12,0,6.15-1.62,7.82-4.51,2.49-4.31,1.01-9.83-3.3-12.32L117.9,1.21c-4.32-2.49-9.83-1.01-12.32,3.3-2.49,4.31-1.01,9.83,3.3,12.32l31.68,18.29c1.42,.82,2.97,1.21,4.5,1.21Z"/></g></g></g></g></svg>