<?xml version="1.0" encoding="UTF-8" standalone="no"?>
<svg
   xmlns:dc="http://purl.org/dc/elements/1.1/"
   xmlns:cc="http://creativecommons.org/ns#"
   xmlns:rdf="http://www.w3.org/1999/02/22-rdf-syntax-ns#"
   xmlns:svg="http://www.w3.org/2000/svg"
   xmlns="http://www.w3.org/2000/svg"
   xmlns:sodipodi="http://sodipodi.sourceforge.net/DTD/sodipodi-0.dtd"
   xmlns:inkscape="http://www.inkscape.org/namespaces/inkscape"
   version="1.1"
   id="Layer_1"
   x="0px"
   y="0px"
   viewBox="0 0 32 32.019846"
   xml:space="preserve"
   sodipodi:docname="logo-monochrome.svg"
   inkscape:version="1.0.1 (c497b03c, 2020-09-10)"
   width="32"
   height="32.019848"><metadata
   id="metadata87"><rdf:RDF><cc:Work
       rdf:about=""><dc:format>image/svg+xml</dc:format><dc:type
         rdf:resource="http://purl.org/dc/dcmitype/StillImage" /><dc:title></dc:title></cc:Work></rdf:RDF></metadata><defs
   id="defs85" /><sodipodi:namedview
   pagecolor="#ffffff"
   bordercolor="#666666"
   borderopacity="1"
   objecttolerance="10"
   gridtolerance="10"
   guidetolerance="10"
   inkscape:pageopacity="0"
   inkscape:pageshadow="2"
   inkscape:window-width="1589"
   inkscape:window-height="858"
   id="namedview83"
   showgrid="false"
   inkscape:zoom="24.340325"
   inkscape:cx="12.713524"
   inkscape:cy="10.256879"
   inkscape:window-x="0"
   inkscape:window-y="25"
   inkscape:window-maximized="0"
   inkscape:current-layer="g32"
   inkscape:document-rotation="0"
   inkscape:pagecheckerboard="true" />
<style
   type="text/css"
   id="style10">
	.st0{fill:#58595B;}
	.st1{fill:#EA4335;}
	.st2{fill:#FFFFFF;}
	.st3{fill:#557DBF;}
	.st4{fill:#F8BC16;}
	.st5{fill:#0B9E59;}
</style>
<g
   id="g32"
   transform="matrix(0.07636319,0,0,0.07636319,-1.238611,-1.6486813)">
	<path
   class="st0"
   d="m 83.36,376.09 c -5.42,-4.78 -10.6,-9.84 -15.51,-15.14 H 53.18 c 41.51,48.9 103.4,79.95 172.56,79.95 69.16,0 131.05,-31.05 172.56,-79.95 h -14.67 c -6.14,6.62 -12.7,12.86 -19.63,18.67 -1.39,1.16 -2.79,2.31 -4.2,3.43 -2.83,2.26 -5.72,4.44 -8.66,6.55 -2.94,2.11 -5.94,4.15 -8.99,6.12 -33.56,21.62 -73.52,34.16 -116.42,34.16 -40.94,0 -79.21,-11.43 -111.8,-31.27 -1.55,-0.95 -3.09,-1.91 -4.62,-2.89 -9.15,-5.89 -13.72,-8.93 -21.85,-16.1 z"
   id="path12" />
	<path
   class="st0"
   d="M 411.81,216.64 H 39.67 c 2.2,-100.88 84.66,-181.98 186.07,-181.98 101.41,0 183.87,81.1 186.07,181.98 m 13.12,4.14 c 0,-110.01 -89.18,-199.19 -199.19,-199.19 -110.01,0 -199.19,89.18 -199.19,199.19 0,3.15 0.08,6.29 0.23,9.4 H 424.7 c 0.14,-3.12 0.23,-6.25 0.23,-9.4"
   id="path14"
   style="fill:#58595b;fill-opacity:1" />
	<path
   id="path16"
   style="fill:#58595b;fill-opacity:1;stroke-width:0.0763632"
   d="M 16 2.7753906 C 9.5877823 2.7753906 4.3094785 7.6285646 3.6367188 13.861328 L 28.363281 13.861328 C 27.690522 7.6278009 22.412217 2.7753906 16 2.7753906 z M 11.228516 5.5292969 C 11.688986 5.5292969 11.961435 5.7070316 12.355469 5.7070312 C 13.2199 5.7070312 13.839844 6.476997 13.839844 7.6132812 C 13.839844 9.8484321 11.452771 13.052734 8.9824219 13.052734 C 7.4605032 13.052734 6.7949219 11.96319 6.7949219 10.892578 C 6.7949219 8.6192463 9.3308892 5.5292969 11.228516 5.5292969 z M 16.09375 5.8476562 C 16.235022 5.8476562 16.742188 5.9697325 16.742188 6.2324219 C 16.742188 6.4676205 15.295982 8.9657181 14.732422 10.121094 L 14.740234 10.140625 C 14.881506 9.9619351 16.469349 8.1601562 16.986328 8.1601562 C 17.333781 8.1601562 17.859375 8.3560259 17.859375 8.515625 C 17.859375 8.6469697 17.746579 8.84532 17.615234 9.0996094 C 17.48389 9.3531352 16.357422 11.306798 16.357422 11.804688 C 16.357422 11.917705 16.384412 12.001953 16.572266 12.001953 C 17.013161 12.001953 17.813807 10.752252 18.042969 10.484375 C 18.510435 9.412455 19.280831 8.2839738 19.605469 8.1503906 C 19.642887 8.141227 19.738545 8.1308594 19.851562 8.1308594 C 20.086762 8.1308594 20.414064 8.1775279 20.414062 8.3378906 C 20.414062 8.3569814 20.40581 8.383855 20.386719 8.4121094 C 20.189702 8.7878163 18.779297 11.248161 18.779297 11.896484 C 18.779297 12.037756 18.83532 12.09375 18.910156 12.09375 C 19.398512 12.09375 20.203295 10.901749 20.511719 10.498047 C 20.968788 9.3198106 22.02653 8.1210938 23.167969 8.1210938 C 23.440585 8.1210938 23.665045 8.2441406 23.927734 8.2441406 C 24.369114 8.2441406 24.539063 8.6184337 24.539062 8.9941406 C 24.539062 9.6707185 24.267551 10.52593 23.826172 11.277344 C 23.882681 11.296435 23.927866 11.314453 23.984375 11.314453 C 24.528845 11.314453 24.934298 10.384766 25.066406 10.384766 C 25.141242 10.384766 25.207031 10.506725 25.207031 10.628906 C 25.206268 10.667088 25.196664 10.694563 25.1875 10.712891 C 24.708703 11.661321 23.927752 12.056641 23.335938 12.056641 L 23.261719 12.056641 C 22.772994 12.591947 22.200749 12.96875 21.589844 12.96875 C 20.801012 12.96875 20.275391 12.526849 20.275391 11.625 C 20.275391 11.56174 20.291159 11.49004 20.296875 11.423828 C 19.814598 12.090612 19.060284 12.941406 18.431641 12.941406 C 17.962007 12.941406 17.662109 12.395445 17.662109 11.859375 C 17.662109 11.778391 17.685453 11.679869 17.699219 11.587891 C 17.205016 12.225286 16.511742 12.929686 15.962891 12.929688 C 15.521511 12.929688 15.097656 12.582474 15.097656 12.09375 C 15.097656 11.023138 16.083763 9.5023514 16.328125 9.1640625 L 16.291016 9.1445312 C 15.746546 9.6424194 14.759343 10.666672 14.148438 11.558594 C 13.622293 12.347426 13.463244 12.919922 13.275391 12.919922 C 13.087537 12.919922 12.673828 12.638468 12.673828 12.291016 C 12.673828 12.065744 13.520804 10.403233 14.337891 8.8164062 C 15.13665 7.2944879 15.896733 5.8476562 16.09375 5.8476562 z M 20.818359 5.9414062 C 21.259739 5.9414062 21.644531 6.2615842 21.644531 6.7128906 C 21.644531 7.201615 21.204009 7.5761719 20.734375 7.5761719 C 20.292996 7.5761719 19.90625 7.2579471 19.90625 6.8066406 C 19.90625 6.3179162 20.348726 5.9414062 20.818359 5.9414062 z M 11.970703 6.1953125 C 10.824492 6.1953125 9.3496094 7.7067915 9.3496094 8.5429688 C 9.3496094 8.8530033 9.5567125 9.0976562 9.8476562 9.0976562 C 10.796851 9.0976562 11.424562 7.7543916 11.490234 7.6230469 C 11.546743 7.481775 11.594631 7.3789065 11.632812 7.3789062 C 11.670997 7.3789062 11.707031 7.5584019 11.707031 7.7363281 C 11.707031 8.6381774 11.153482 9.9804684 9.7636719 9.9804688 C 8.7022232 9.9804688 8.6180981 9.1074219 8.5898438 9.1074219 C 8.5333347 9.1074219 8.1386719 9.9332213 8.1386719 10.712891 C 8.1386719 11.389468 8.4569237 12.027344 9.3496094 12.027344 C 11.350325 12.027344 12.976562 8.8534797 12.976562 7.3789062 C 12.975799 6.5625837 12.580845 6.1953125 11.970703 6.1953125 z M 23.5625 8.7695312 C 22.82025 8.7695312 21.626953 10.393762 21.626953 11.511719 C 21.626953 11.830917 21.740306 12.056641 22.03125 12.056641 C 22.200013 12.056641 22.368347 11.981556 22.537109 11.859375 C 22.292747 11.718103 22.162109 11.494201 22.162109 11.259766 C 22.162109 10.931404 22.387054 10.628906 22.791016 10.628906 C 23.016287 10.628906 23.195268 10.743655 23.345703 10.875 C 23.683992 10.283185 23.910156 9.6257069 23.910156 9.25 C 23.910156 9.0148014 23.835117 8.7695312 23.5625 8.7695312 z "
   transform="matrix(13.095315,0,0,13.095315,16.220001,21.59)" />
	
	
	
	
	<path
   class="st0"
   d="m 46.76,307.26 c 5.35,0 10.02,-1.38 14,-4.12 3.98,-2.75 7.09,-6.79 9.33,-12.13 2.24,-5.34 3.36,-11.44 3.36,-18.31 0,-5.57 -1.31,-9.81 -3.93,-12.72 -2.62,-2.91 -6.39,-4.37 -11.31,-4.37 H 51.97 L 41,307.26 Z m 43.67,-35.43 c 0,10.13 -1.77,18.93 -5.32,26.4 -3.55,7.47 -8.67,13.16 -15.38,17.06 -6.71,3.91 -14.62,5.86 -23.74,5.86 H 21.53 L 38.3,241.83 h 21.49 c 9.77,0 17.32,2.59 22.65,7.76 5.32,5.17 7.99,12.58 7.99,22.24"
   id="path26" />
	<path
   class="st0"
   d="m 129.62,271.12 c -3.18,0 -6.18,1.45 -9.01,4.34 -2.82,2.89 -4.67,6.42 -5.53,10.58 h 2.44 c 5.61,0 9.97,-0.88 13.1,-2.63 3.13,-1.75 4.69,-4.13 4.69,-7.13 0.01,-3.44 -1.89,-5.16 -5.69,-5.16 m -8.9,51.11 c -7.6,0 -13.49,-2.04 -17.69,-6.13 -4.2,-4.09 -6.29,-9.86 -6.29,-17.31 0,-7.49 1.49,-14.31 4.48,-20.48 2.99,-6.17 7.03,-10.87 12.13,-14.11 5.1,-3.24 10.87,-4.86 17.31,-4.86 6.4,0 11.39,1.47 14.98,4.42 3.58,2.95 5.37,6.99 5.37,12.13 0,6.76 -3.02,11.98 -9.06,15.65 -6.04,3.67 -14.67,5.51 -25.88,5.51 h -2.77 l -0.11,1.14 v 1.09 c 0,3.29 0.93,5.89 2.79,7.79 1.86,1.9 4.53,2.85 8,2.85 3.15,0 6,-0.34 8.57,-1.03 2.57,-0.69 5.68,-1.9 9.33,-3.64 v 12.32 c -6.22,3.11 -13.27,4.66 -21.16,4.66"
   id="path28" />
	<path
   class="st0"
   d="m 178.45,304.82 c 1.99,-5.53 3.65,-9.57 4.99,-12.1 l 16.11,-32.23 h 17.53 l -32.77,60.66 h -17.52 l -7.49,-60.66 h 16.01 l 2.44,31.79 c 0.25,4.81 0.38,8.99 0.38,12.53 h 0.32 z"
   id="path30" />
</g>
<polygon
   class="st3"
   points="230.32,241.82 274.49,241.82 271.56,255.6 244,255.6 239.71,276.06 265.37,276.06 262.34,289.79 236.67,289.79 230.11,321.15 213.56,321.15 "
   id="polygon34"
   transform="matrix(0.07636319,0,0,0.07636319,-1.238611,-1.6486813)"
   style="fill:#58595b;fill-opacity:1" />
<g
   id="g74"
   transform="translate(-16.22,-21.589998)">
	<path
   class="st1"
   d="m 38.456965,40.644904 c -0.242835,0 -0.471925,0.110725 -0.688032,0.331424 -0.215345,0.220676 -0.356618,0.490251 -0.423053,0.807926 h 0.186325 c 0.428397,0 0.761343,-0.0672 1.00036,-0.20085 0.239015,-0.133625 0.358143,-0.315375 0.358143,-0.544476 0.0015,-0.262674 -0.143563,-0.394024 -0.433743,-0.394024 m -0.67887,3.902925 c -0.58036,0 -1.030139,-0.155775 -1.350865,-0.4681 -0.320725,-0.312325 -0.480325,-0.75295 -0.480325,-1.32185 0,-0.57195 0.113782,-1.09275 0.342107,-1.563925 0.227564,-0.471151 0.536834,-0.830076 0.926286,-1.077476 0.389455,-0.247424 0.830069,-0.371125 1.321847,-0.371125 0.488725,0 0.869778,0.11225 1.143922,0.337525 0.27338,0.225275 0.410071,0.533776 0.410071,0.926275 0,0.516226 -0.230618,0.914826 -0.691851,1.195101 -0.461234,0.28025 -1.120252,0.42075 -1.976282,0.42075 H 37.21148 l -0.0084,0.08705 v 0.08325 c 0,0.251225 0.07102,0.449775 0.213055,0.59485 0.142035,0.1451 0.345922,0.21765 0.610905,0.21765 0.240545,0 0.45818,-0.02598 0.654432,-0.07865 0.196255,-0.0527 0.433743,-0.1451 0.712468,-0.277975 v 0.9408 c -0.475743,0.2375 -1.014103,0.35585 -1.615845,0.35585"
   id="path36"
   style="fill:#58595b;fill-opacity:1;stroke-width:0.0763635" />
	<path
   class="st4"
   d="m 43.73595,42.936579 c 0,0.51925 -0.171818,0.917875 -0.516213,1.195075 -0.343634,0.27795 -0.822432,0.416175 -1.435627,0.416175 -0.295525,0 -0.55287,-0.0205 -0.7728,-0.06185 -0.219923,-0.04125 -0.424577,-0.110725 -0.615487,-0.20695 v -1.027075 c 0.433745,0.24895 0.874362,0.37265 1.321849,0.37265 0.22069,0 0.401673,-0.04505 0.542943,-0.1344 0.140507,-0.08935 0.211528,-0.211525 0.211528,-0.36655 0,-0.11835 -0.05116,-0.225275 -0.153493,-0.3192 -0.102325,-0.09392 -0.283305,-0.21305 -0.54294,-0.3566 -0.334472,-0.187875 -0.567382,-0.37495 -0.70025,-0.561275 -0.132872,-0.186325 -0.19931,-0.407025 -0.19931,-0.66055 0,-0.469626 0.152725,-0.833125 0.458178,-1.092 0.305455,-0.258101 0.740725,-0.387151 1.307342,-0.387151 0.55516,0 1.056863,0.131351 1.50435,0.393275 l -0.41007,0.891151 c -0.386395,-0.232151 -0.74301,-0.348226 -1.069085,-0.348226 -0.157305,0 -0.284832,0.03513 -0.38105,0.1054 -0.09698,0.07025 -0.14509,0.164925 -0.14509,0.28405 0,0.107675 0.04429,0.202376 0.132872,0.284076 0.08858,0.08173 0.25429,0.18405 0.497125,0.308525 0.339815,0.1741 0.585703,0.363475 0.737668,0.567375 0.1512,0.203875 0.22756,0.438325 0.22756,0.704075"
   id="path38"
   style="fill:#58595b;fill-opacity:1;stroke-width:0.0763635" />
	<path
   class="st5"
   d="m 46.445315,43.541354 c 0.179457,0 0.403202,-0.0481 0.671237,-0.145075 v 0.9324 c -0.306217,0.1466 -0.674287,0.219925 -1.101922,0.219925 -0.41465,0 -0.718578,-0.08707 -0.913303,-0.261175 -0.19473,-0.1741 -0.291707,-0.443675 -0.291707,-0.807925 0,-0.1382 0.0168,-0.292475 0.04963,-0.464275 l 0.476507,-2.232876 H 44.70576 l 0.11989,-0.609374 0.812502,-0.3482 0.54676,-0.978225 h 0.804108 l -0.20312,0.985849 h 1.172172 l -0.206942,0.948426 h -1.168357 l -0.476505,2.232875 c -0.0168,0.08245 -0.0252,0.155775 -0.0252,0.219925 0,0.2054 0.121417,0.307725 0.364247,0.307725"
   id="path40"
   style="fill:#58595b;fill-opacity:1;stroke-width:0.0763635" />
	
	<path
   class="st0"
   d="m 48.22,46.470654 -0.717815,-1.03395 H 44.37893 43.09603 21.34397 20.061069 16.937814 L 16.22,46.470654 h 4.693282 c 2.784202,3.0927 6.817706,5.037675 11.3071,5.037675 4.489393,0 8.522893,-1.944975 11.3071,-5.037675 z"
   id="path44"
   style="stroke-width:0.0763635" />
	<path
   class="st1"
   d="m 21.33557,45.437454 c 2.60704,3.101875 6.515308,5.073572 10.884047,5.073572 4.368739,0 8.277005,-1.971697 10.884048,-5.073572 z"
   id="path46"
   style="fill:#58595b;fill-opacity:1;stroke-width:0.0763635" />
	
	
	
	
	
	
	
	
	
	
	
	
	
</g>


</svg>
