<?xml version="1.0" encoding="UTF-8" standalone="no"?>
<svg
   xmlns:dc="http://purl.org/dc/elements/1.1/"
   xmlns:cc="http://creativecommons.org/ns#"
   xmlns:rdf="http://www.w3.org/1999/02/22-rdf-syntax-ns#"
   xmlns:svg="http://www.w3.org/2000/svg"
   xmlns="http://www.w3.org/2000/svg"
   xmlns:sodipodi="http://sodipodi.sourceforge.net/DTD/sodipodi-0.dtd"
   xmlns:inkscape="http://www.inkscape.org/namespaces/inkscape"
   version="1.1"
   id="Layer_1"
   x="0px"
   y="0px"
   viewBox="0 0 2000 2001.2409"
   xml:space="preserve"
   sodipodi:docname="DevFest 2019 Logo-4 color.svg"
   inkscape:version="1.0.1 (c497b03c, 2020-09-10)"
   width="2000"
   height="2001.241"><metadata
   id="metadata87"><rdf:RDF><cc:Work
       rdf:about=""><dc:format>image/svg+xml</dc:format><dc:type
         rdf:resource="http://purl.org/dc/dcmitype/StillImage" /><dc:title></dc:title></cc:Work></rdf:RDF></metadata><defs
   id="defs85" /><sodipodi:namedview
   pagecolor="#ffffff"
   bordercolor="#666666"
   borderopacity="1"
   objecttolerance="10"
   gridtolerance="10"
   guidetolerance="10"
   inkscape:pageopacity="0"
   inkscape:pageshadow="2"
   inkscape:window-width="1589"
   inkscape:window-height="858"
   id="namedview83"
   showgrid="false"
   inkscape:zoom="0.16689276"
   inkscape:cx="-5.4787831"
   inkscape:cy="1050.5129"
   inkscape:window-x="0"
   inkscape:window-y="25"
   inkscape:window-maximized="0"
   inkscape:current-layer="g74" />
<style
   type="text/css"
   id="style10">
	.st0{fill:#58595B;}
	.st1{fill:#EA4335;}
	.st2{fill:#FFFFFF;}
	.st3{fill:#557DBF;}
	.st4{fill:#F8BC16;}
	.st5{fill:#0B9E59;}
</style>
<g
   id="g32"
   transform="matrix(4.7727002,0,0,4.7727002,-77.413197,-103.0426)">
	<path
   class="st0"
   d="m 83.36,376.09 c -5.42,-4.78 -10.6,-9.84 -15.51,-15.14 H 53.18 c 41.51,48.9 103.4,79.95 172.56,79.95 69.16,0 131.05,-31.05 172.56,-79.95 h -14.67 c -6.14,6.62 -12.7,12.86 -19.63,18.67 -1.39,1.16 -2.79,2.31 -4.2,3.43 -2.83,2.26 -5.72,4.44 -8.66,6.55 -2.94,2.11 -5.94,4.15 -8.99,6.12 -33.56,21.62 -73.52,34.16 -116.42,34.16 -40.94,0 -79.21,-11.43 -111.8,-31.27 -1.55,-0.95 -3.09,-1.91 -4.62,-2.89 -9.15,-5.89 -13.72,-8.93 -21.85,-16.1 z"
   id="path12" />
	<path
   class="st0"
   d="M 411.81,216.64 H 39.67 c 2.2,-100.88 84.66,-181.98 186.07,-181.98 101.41,0 183.87,81.1 186.07,181.98 m 13.12,4.14 c 0,-110.01 -89.18,-199.19 -199.19,-199.19 -110.01,0 -199.19,89.18 -199.19,199.19 0,3.15 0.08,6.29 0.23,9.4 H 424.7 c 0.14,-3.12 0.23,-6.25 0.23,-9.4"
   id="path14" />
	<path
   class="st1"
   d="M 387.64,203.11 C 378.83,121.48 309.71,57.93 225.74,57.93 c -83.97,0 -153.09,63.56 -161.9,145.18 z"
   id="path16" />
	<path
   class="st2"
   d="m 172.97,102.72 c -15.01,0 -34.32,19.8 -34.32,30.75 0,4.06 2.71,7.26 6.52,7.26 12.43,0 20.67,-17.59 21.53,-19.31 0.74,-1.85 1.35,-3.2 1.85,-3.2 0.5,0 0.99,2.34 0.99,4.67 0,11.81 -7.26,29.4 -25.46,29.4 -13.9,0 -15.01,-11.44 -15.38,-11.44 -0.74,0 -5.91,10.82 -5.91,21.03 0,8.86 4.18,17.22 15.87,17.22 26.2,0 47.48,-41.58 47.48,-60.89 -0.01,-10.69 -5.18,-15.49 -13.17,-15.49 m -39.12,89.8 c -19.93,0 -28.66,-14.27 -28.66,-28.29 0,-29.77 33.21,-70.24 58.06,-70.24 6.03,0 9.6,2.34 14.76,2.34 11.32,0 19.44,10.09 19.44,24.97 0,29.27 -31.25,71.22 -63.6,71.22"
   id="path18" />
	<path
   class="st2"
   d="m 225.25,190.92 c -5.78,0 -11.32,-4.55 -11.32,-10.95 0,-14.02 12.92,-33.95 16.12,-38.38 l -0.49,-0.25 c -7.13,6.52 -20.05,19.93 -28.05,31.61 -6.89,10.33 -8.98,17.84 -11.44,17.84 -2.46,0 -7.87,-3.69 -7.87,-8.24 0,-2.95 11.07,-24.73 21.77,-45.51 10.46,-19.93 20.42,-38.87 23,-38.87 1.85,0 8.49,1.6 8.49,5.04 0,3.08 -18.94,35.8 -26.32,50.93 l 0.12,0.25 c 1.85,-2.34 22.63,-25.95 29.4,-25.95 4.55,0 11.44,2.58 11.44,4.67 0,1.72 -1.48,4.3 -3.2,7.63 -1.72,3.32 -16.48,28.91 -16.48,35.43 0,1.48 0.37,2.58 2.83,2.58 6.4,0 19.81,-22.02 20.91,-22.02 1.11,0 1.6,2.09 1.6,4.18 0,3.57 -18.46,30.01 -30.51,30.01"
   id="path20" />
	<path
   class="st2"
   d="m 287.74,120.81 c -5.78,0 -10.83,-4.18 -10.83,-10.09 0,-6.4 5.78,-11.32 11.93,-11.32 5.78,0 10.83,4.18 10.83,10.09 0,6.4 -5.78,11.32 -11.93,11.32 m -30.14,70.24 c -6.15,0 -10.09,-7.13 -10.09,-14.15 0,-15.01 19.19,-46.01 25.46,-48.59 0.49,-0.12 1.72,-0.25 3.2,-0.25 3.08,0 7.38,0.61 7.38,2.71 0,0.25 -0.12,0.61 -0.37,0.98 -2.58,4.92 -21.04,37.15 -21.04,45.64 0,1.85 0.74,2.58 1.72,2.58 7.63,0 21.77,-23.25 22.88,-23.25 1.35,0 1.48,2.83 1.48,4.55 0.01,2.22 -17.82,29.78 -30.62,29.78"
   id="path22" />
	<path
   class="st2"
   d="m 324.77,136.43 c -9.72,0 -25.34,21.28 -25.34,35.92 0,4.18 1.48,7.13 5.29,7.13 2.21,0 4.43,-0.98 6.64,-2.58 -3.2,-1.85 -4.92,-4.8 -4.92,-7.87 0,-4.3 2.95,-8.24 8.24,-8.24 2.95,0 5.29,1.48 7.26,3.2 4.43,-7.75 7.38,-16.36 7.38,-21.28 0,-3.08 -0.98,-6.28 -4.55,-6.28 m 21.28,25.46 c -6.27,12.42 -16.48,17.59 -24.23,17.59 h -0.98 c -6.4,7.01 -13.9,11.93 -21.9,11.93 -10.33,0 -17.22,-5.78 -17.22,-17.59 0,-17.96 17.96,-45.88 37.89,-45.88 3.57,0 6.52,1.6 9.96,1.6 5.78,0 8,4.92 8,9.84 0,8.86 -3.57,20.05 -9.35,29.89 0.74,0.25 1.35,0.49 2.09,0.49 7.13,0 12.42,-12.18 14.15,-12.18 0.98,0 1.85,1.6 1.85,3.2 -0.01,0.5 -0.14,0.87 -0.26,1.11"
   id="path24" />
	<path
   class="st0"
   d="m 46.76,307.26 c 5.35,0 10.02,-1.38 14,-4.12 3.98,-2.75 7.09,-6.79 9.33,-12.13 2.24,-5.34 3.36,-11.44 3.36,-18.31 0,-5.57 -1.31,-9.81 -3.93,-12.72 -2.62,-2.91 -6.39,-4.37 -11.31,-4.37 H 51.97 L 41,307.26 Z m 43.67,-35.43 c 0,10.13 -1.77,18.93 -5.32,26.4 -3.55,7.47 -8.67,13.16 -15.38,17.06 -6.71,3.91 -14.62,5.86 -23.74,5.86 H 21.53 L 38.3,241.83 h 21.49 c 9.77,0 17.32,2.59 22.65,7.76 5.32,5.17 7.99,12.58 7.99,22.24"
   id="path26" />
	<path
   class="st0"
   d="m 129.62,271.12 c -3.18,0 -6.18,1.45 -9.01,4.34 -2.82,2.89 -4.67,6.42 -5.53,10.58 h 2.44 c 5.61,0 9.97,-0.88 13.1,-2.63 3.13,-1.75 4.69,-4.13 4.69,-7.13 0.01,-3.44 -1.89,-5.16 -5.69,-5.16 m -8.9,51.11 c -7.6,0 -13.49,-2.04 -17.69,-6.13 -4.2,-4.09 -6.29,-9.86 -6.29,-17.31 0,-7.49 1.49,-14.31 4.48,-20.48 2.99,-6.17 7.03,-10.87 12.13,-14.11 5.1,-3.24 10.87,-4.86 17.31,-4.86 6.4,0 11.39,1.47 14.98,4.42 3.58,2.95 5.37,6.99 5.37,12.13 0,6.76 -3.02,11.98 -9.06,15.65 -6.04,3.67 -14.67,5.51 -25.88,5.51 h -2.77 l -0.11,1.14 v 1.09 c 0,3.29 0.93,5.89 2.79,7.79 1.86,1.9 4.53,2.85 8,2.85 3.15,0 6,-0.34 8.57,-1.03 2.57,-0.69 5.68,-1.9 9.33,-3.64 v 12.32 c -6.22,3.11 -13.27,4.66 -21.16,4.66"
   id="path28" />
	<path
   class="st0"
   d="m 178.45,304.82 c 1.99,-5.53 3.65,-9.57 4.99,-12.1 l 16.11,-32.23 h 17.53 l -32.77,60.66 h -17.52 l -7.49,-60.66 h 16.01 l 2.44,31.79 c 0.25,4.81 0.38,8.99 0.38,12.53 h 0.32 z"
   id="path30" />
</g>
<polygon
   class="st3"
   points="274.49,241.82 271.56,255.6 244,255.6 239.71,276.06 265.37,276.06 262.34,289.79 236.67,289.79 230.11,321.15 213.56,321.15 230.32,241.82 "
   id="polygon34"
   transform="matrix(4.7727002,0,0,4.7727002,-77.413197,-103.0426)" />
<g
   id="g74"
   transform="translate(-16.22,-21.590001)">
	<path
   class="st1"
   d="m 1406.0303,1212.5219 c -15.1772,0 -29.4953,6.9204 -43.002,20.7135 -13.4591,13.7931 -22.2886,30.6407 -26.4408,50.4952 h 11.6454 c 26.7748,0 47.5838,-4.2 62.5224,-12.5522 14.9385,-8.3523 22.3839,-19.7113 22.3839,-34.0294 0.095,-16.4181 -8.9727,-24.6271 -27.1089,-24.6271 m -42.4293,243.9327 c -36.2725,0 -64.3837,-9.7363 -84.4291,-29.2567 -20.0453,-19.5203 -30.0203,-47.0588 -30.0203,-82.6154 0,-35.7475 7.1114,-68.2974 21.3817,-97.7449 14.2227,-29.4476 33.5521,-51.8793 57.8929,-67.3428 24.3408,-15.4636 51.8792,-23.1953 82.6154,-23.1953 30.5453,0 54.3611,7.0158 71.4951,21.0953 17.0862,14.0795 25.6294,33.3612 25.6294,57.8928 0,32.2635 -14.4136,57.177 -43.2407,74.6928 -28.8271,17.5158 -70.0155,26.2976 -123.5175,26.2976 h -13.2204 l -0.525,5.4409 v 5.2022 c 0,15.7022 4.4387,28.1112 13.3159,37.1793 8.8772,9.0682 21.6203,13.6022 38.1816,13.6022 15.034,0 28.6362,-1.6227 40.902,-4.9158 12.2659,-3.2932 27.109,-9.0682 44.5293,-17.3727 v 58.7997 c -29.7339,14.8431 -63.3814,22.2408 -100.9903,22.2408"
   id="path36"
   style="stroke-width:4.7727" />
	<path
   class="st4"
   d="m 1735.967,1355.7506 c 0,32.4544 -10.7385,57.3679 -32.2634,74.6928 -21.4772,17.3726 -51.402,26.0112 -89.7268,26.0112 -18.4703,0 -34.5543,-1.2887 -48.2997,-3.8659 -13.7454,-2.5773 -26.5362,-6.9204 -38.468,-12.934 v -64.1928 c 27.109,15.559 54.6475,23.2907 82.6155,23.2907 13.7931,0 25.1044,-2.8159 33.9339,-8.3999 8.7817,-5.5841 13.2204,-13.2204 13.2204,-22.909 0,-7.3977 -3.1977,-14.0794 -9.5932,-19.9499 -6.3954,-5.8704 -17.7067,-13.3158 -33.9339,-22.2885 -20.9044,-11.7408 -35.4611,-23.4339 -43.7656,-35.0793 -8.3045,-11.6454 -12.4568,-25.4385 -12.4568,-41.2839 0,-29.3521 9.5454,-52.0701 28.6362,-68.2496 19.0908,-16.1317 46.2952,-24.1976 81.7087,-24.1976 34.6975,0 66.0541,8.2091 94.0221,24.5794 l -25.6294,55.6974 c -24.1498,-14.509 -46.4383,-21.7635 -66.8178,-21.7635 -9.8317,0 -17.8021,2.1955 -23.8157,6.5863 -6.0614,4.3909 -9.0682,10.3091 -9.0682,17.7545 0,6.7295 2.7682,12.6476 8.3045,17.7544 5.5364,5.1068 15.8931,11.5022 31.0703,19.2817 21.2385,10.8818 36.6066,22.7181 46.1043,35.4612 9.4499,12.7431 14.2226,27.3953 14.2226,44.0043"
   id="path38"
   style="stroke-width:4.7727" />
	<path
   class="st5"
   d="m 1905.3024,1393.5504 c 11.2159,0 25.1999,-3.0068 41.9521,-9.0681 v 58.2746 c -19.1385,9.1636 -42.143,13.7454 -68.8701,13.7454 -25.9157,0 -44.9111,-5.4409 -57.0815,-16.3226 -12.1704,-10.8818 -18.2317,-27.7294 -18.2317,-50.4952 0,-8.6386 1.05,-18.2794 3.1023,-29.018 l 29.7816,-139.5538 h -39.3748 l 7.4932,-38.0861 50.7815,-21.7635 34.1725,-61.1383 h 50.2566 l -12.6954,61.6155 h 73.2609 l -12.934,59.277 h -73.0223 l -29.7816,139.5537 c -1.05,5.1545 -1.575,9.7363 -1.575,13.7454 0,12.8386 7.5886,19.234 22.7657,19.234"
   id="path40"
   style="stroke-width:4.7727" />
	
	<path
   class="st0"
   d="m 2016.22,1576.6312 -44.8634,-64.6224 H 1776.1532 1695.9718 336.46818 256.28682 61.083381 L 16.22,1576.6312 h 293.33015 c 174.01265,193.2943 426.10667,314.855 706.69375,314.855 280.587,0 532.681,-121.5607 706.6937,-314.855 z"
   id="path44"
   style="stroke-width:4.7727" />
	<path
   class="st1"
   d="m 335.94318,1512.0565 c 162.93999,193.8671 407.20678,317.0982 680.25292,317.0982 273.0462,0 517.313,-123.2311 680.253,-317.0982 z"
   id="path46"
   style="stroke-width:4.7727" />
	
	
	
	
	
	
	
	
	
	
	
	
	
</g>


</svg>
