<svg viewBox="0 0 554 435" xmlns="http://www.w3.org/2000/svg" fill-rule="evenodd" clip-rule="evenodd" stroke-linejoin="round" stroke-miterlimit="2"><path fill="none" d="M0 0h553.377v434.033H0z"/><path d="M154.13 304.552l2.192-13.004c31.472 7.866 59.939 11.8 85.403 11.8 12.874 0 24.176-.146 33.904-.438 10.014-.582 18.882-1.456 26.608-2.622v-26.222l-46.35-3.932c-20.886-2.04-38.338-5.536-52.356-10.49-14.02-4.952-25.322-11.654-33.905-20.102-8.297-8.742-14.305-19.084-18.024-31.03-3.434-12.236-5.15-26.512-5.15-42.828 0-10.572.508-20.304 1.524-29.194-7.448 8.006-14.132 16.682-20.594 26.542-15.921 26.304-21.344 47.204-19.205 73.2 3.611 26.252 13.898 43.788 35.727 61.482a153.252 153.252 0 0010.226 6.838zM394.129 72.07l1.664-10.838c-36.908-8.74-78.106-13.11-123.598-13.11-22.888 0-42.344 1.893-58.366 5.681-15.734 3.787-28.61 10.343-38.624 19.666-10.014 9.032-17.309 21.124-21.887 36.274-1.207 3.919-2.255 8.102-3.144 12.548a337.909 337.909 0 00-11.302 10.152c-29.874 30.075-44.974 56.025-52.306 90.435-5.418 34.866.769 59.742 21.611 86.562 11.89 13.328 24.616 23.388 39.901 31l-6.347 37.64c19.169 4.37 39.053 7.72 59.654 10.052 20.598 2.332 42.056 3.496 64.372 3.496 8.87 0 18.74-.29 29.612-.874a248.313 248.313 0 0033.046-3.06c10.874-1.748 21.172-4.37 30.9-7.866 9.726-3.786 17.88-8.888 24.462-15.296 8.01-7.866 14.876-19.376 20.6-34.526 3.148-8.33 5.428-17.72 6.842-28.164 13.444-8.63 26.478-18.402 39.948-29.772 35.346-31.76 56.19-59.284 72.006-95.992 11.272-29.924 15.536-53.68 10.228-81.258 17.998 31.558 22.978 68.11 15.102 105.574-8.044 38.49-29.488 77.996-63.74 114.092-28.834 30.434-64.672 56.178-104.28 75.698-39.998 19.732-83.656 33.034-127.372 38.336-29.76 3.366-58.924 2.806-90.604-1.578-30.474-5.506-55.204-13.408-76.269-24.73-20.954-11.264-38.352-25.942-54.386-45.058-14.332-19.732-23.303-38.596-27.573-58.936-4.158-19.978-3.667-41.386 1.04-66.114 6.071-24.522 14.716-45.88 27.242-66.32 12.316-20.188 28.622-39.614 49.902-60.308 43.77-39.56 84.857-63.62 143.4-83.961C268.319 8.207 309.301.917 346.617 1.38c37.586.457 72.162 8.714 101.65 26.657 18.002 11.829 29.382 22.994 39.996 39.713 10.066 17.179 14.554 31.963 15.702 52.302.438 21.416-3.172 38.542-12.744 60.714-10.506 22.384-22.162 39.158-41.804 59.342-12.066 11.84-23.482 21.478-36.492 30.522-.278-14.044-2.27-26.592-5.974-37.644-2.606-8.368-6.616-15.95-12.026-22.744 12.432-12.898 19.942-23.674 26.866-38.086 6.286-14.428 8.75-25.642 8.586-39.614-.708-13.302-3.5-22.989-10.012-34.255-6.89-11.009-14.28-18.351-26.04-26.099l-.196-.118zm-2.466 16.073l-8.744 56.999c-32.044-5.244-57.652-7.866-76.82-7.866-19.17 0-35.478.874-48.924 2.622v25.786l36.908 3.496c22.602 2.33 41.484 6.264 56.648 11.8 12.852 4.444 23.544 10.144 32.08 17.1 12.556-13.444 22.048-28.108 26.832-42.852 3.608-12.592 4.1-21.969 1.918-33.595-2.686-11.367-6.842-19.471-14.83-28.597a73.047 73.047 0 00-5.068-4.893z" fill="url(#prefix___Linear1)"/><path d="M139.077 374.41l14.688-85.536c31.68 7.776 60.336 11.664 85.968 11.664 12.96 0 24.336-.144 34.128-.432 10.08-.576 19.008-1.44 26.784-2.592v-25.92l-46.656-3.888c-21.024-2.016-38.592-5.472-52.704-10.368-14.112-4.896-25.488-11.52-34.128-19.872-8.352-8.64-14.4-18.864-18.144-30.672-3.456-12.096-5.184-26.208-5.184-42.336 0-22.176 2.304-40.608 6.912-55.296 4.608-14.976 11.952-26.928 22.032-35.856 10.08-9.216 23.04-15.696 38.88-19.44 16.128-3.744 35.712-5.616 58.752-5.616 45.792 0 87.264 4.32 124.416 12.96l-12.96 82.944c-32.256-5.184-58.032-7.776-77.328-7.776-19.296 0-35.712.864-49.248 2.592v25.488l37.152 3.456c22.752 2.304 41.76 6.192 57.024 11.664 15.264 5.184 27.504 12.096 36.72 20.736 9.504 8.64 16.128 18.864 19.872 30.672 4.032 11.808 6.048 25.344 6.048 40.608 0 21.888-2.88 40.32-8.64 55.296-5.76 14.976-12.672 26.352-20.736 34.128-6.624 6.336-14.832 11.376-24.624 15.12-9.792 3.456-20.16 6.048-31.104 7.776a254.955 254.955 0 01-33.264 3.024c-10.944.576-20.88.864-29.808.864-22.464 0-44.064-1.152-64.8-3.456-20.736-2.304-40.752-5.616-60.048-9.936z" fill="url(#prefix___Linear2)" fill-rule="nonzero"/><path d="M139.077 374.41l-7.885-1.354-1.288 7.498 7.425 1.662 1.748-7.806zm14.688-85.536l1.907-7.77-8.339-2.046-1.453 8.462 7.885 1.354zm120.096 11.232l.236 7.996.11-.002.11-.008-.456-7.986zm26.784-2.592l1.172 7.914 6.828-1.012v-6.902h-8zm0-25.92h8v-7.362l-7.336-.61-.664 7.972zm-46.656-3.888l-.764 7.964.1.008.664-7.972zm-52.704-10.368l-2.622 7.558 2.622-7.558zm-34.128-19.872l-5.752 5.56.094.098.097.094 5.561-5.752zm-18.144-30.672l-7.693 2.198.032.11.035.11 7.626-2.418zm1.728-97.632l7.633 2.395.013-.043-7.646-2.352zm22.032-35.856l5.304 5.988.047-.041.047-.043-5.398-5.904zm38.88-19.44l-1.81-7.793-.03.007 1.84 7.786zm183.168 7.344l7.904 1.235 1.148-7.344-7.24-1.683-1.812 7.792zm-12.96 82.944l-1.27 7.898 7.934 1.276 1.24-7.938-7.904-1.236zm-126.576-5.184l-1.014-7.936-6.986.892v7.044h8zm0 25.488h-8v7.29l7.26.676.74-7.966zm37.152 3.456l.806-7.96-.032-.002-.034-.004-.74 7.966zm57.024 11.664l-2.7 7.53.064.024.064.022 2.572-7.576zm36.72 20.736l-5.472 5.836.046.042.044.042 5.382-5.92zm19.872 30.672l-7.626 2.418.026.084.03.084 7.57-2.586zm-2.592 95.904l-7.466-2.872 7.466 2.872zm-20.736 34.128l5.53 5.782.024-.024-5.554-5.758zm-24.624 15.12l2.662 7.544.098-.034.098-.038-2.858-7.472zm-31.104 7.776l1.248 7.902-1.248-7.902zm-33.264 3.024l-.206-7.998-.106.004-.108.006.42 7.988zm-94.608-2.592l.884-7.952-.884 7.952zm-52.164-8.582l14.688-85.536-15.769-2.708-14.688 85.536 15.769 2.708zm4.897-79.12c32.143 7.89 61.453 11.894 87.875 11.894v-16c-24.842 0-52.845-3.772-84.061-11.434l-3.814 15.54zm87.875 11.894c13.016 0 24.472-.144 34.364-.436l-.472-15.992c-9.692.284-20.988.428-33.892.428v16zm34.584-.446c10.256-.586 19.432-1.468 27.5-2.664l-2.344-15.828c-7.484 1.108-16.164 1.954-26.068 2.52l.912 15.972zm34.328-10.578v-25.92h-16v25.92h16zm-7.336-33.892l-46.656-3.888-1.328 15.944 46.656 3.888 1.328-15.944zm-46.556-3.88c-20.63-1.978-37.526-5.34-50.846-9.962l-5.244 15.116c14.904 5.17 33.144 8.72 54.562 10.774l1.528-15.928zm-50.846-9.962c-13.273-4.606-23.564-10.694-31.19-18.066l-11.121 11.504c9.654 9.332 22.116 16.49 37.067 21.678l5.244-15.116zm-30.998-17.874c-7.467-7.724-12.888-16.862-16.271-27.53l-15.251 4.836c4.105 12.948 10.78 24.258 20.018 33.814l11.504-11.12zm-16.204-27.31c-3.204-11.212-4.876-24.556-4.876-40.138h-16c0 16.674 1.783 31.554 5.491 44.534l15.385-4.396zm-4.876-40.138c0-21.688 2.261-39.247 6.545-52.901l-15.267-4.79c-4.932 15.722-7.278 35.027-7.278 57.691h16zm6.558-52.944c4.248-13.805 10.879-24.416 19.69-32.22l-10.609-11.977c-11.349 10.052-19.405 23.345-24.374 39.492l15.293 4.705zm19.784-32.304c8.897-8.134 20.554-14.068 35.322-17.559l-3.68-15.571c-16.912 3.998-31.175 11.024-42.439 21.322l10.797 11.808zm35.292-17.551c15.354-3.565 34.294-5.409 56.942-5.409v-16c-23.432 0-43.66 1.9-60.562 5.823l3.62 15.586zm56.942-5.409c45.3 0 86.15 4.274 122.604 12.752l3.624-15.584c-37.85-8.803-79.944-13.168-126.228-13.168v16zm116.512 3.725l-12.96 82.943 15.808 2.472 12.96-82.945-15.808-2.47zm-3.786 76.281c-32.432-5.213-58.686-7.878-78.598-7.878v16c18.68 0 43.978 2.518 76.058 7.674l2.54-15.796zm-78.598-7.878c-19.508 0-36.284.872-50.262 2.656l2.028 15.872c13.094-1.672 29.15-2.528 48.234-2.528v-16zm-57.248 10.592v25.488h16V138.97h-16zm7.26 33.454l37.152 3.456 1.48-15.932-37.152-3.456-1.48 15.932zm37.086 3.45c22.348 2.262 40.67 6.05 55.13 11.234l5.4-15.06c-16.068-5.76-35.762-9.748-58.918-12.094l-1.612 15.92zm55.258 11.28c14.472 4.914 25.632 11.32 33.82 18.996l10.944-11.672c-10.244-9.604-23.564-17.022-39.62-22.476l-5.144 15.152zm33.91 19.08c8.502 7.728 14.326 16.758 17.628 27.17l15.252-4.836c-4.186-13.204-11.61-24.622-22.116-34.174l-10.764 11.84zm17.684 27.338c3.692 10.812 5.618 23.448 5.618 38.022h16c0-15.954-2.106-30.39-6.478-43.194l-15.14 5.172zm5.618 38.022c0 21.24-2.802 38.632-8.106 52.424l14.932 5.744c6.216-16.16 9.174-35.632 9.174-58.168h-16zm-8.106 52.424c-5.51 14.322-11.882 24.548-18.824 31.242l11.108 11.516c9.186-8.858 16.638-21.384 22.648-37.014l-14.932-5.744zm-18.8 31.218c-5.752 5.502-13.012 10.012-21.952 13.43l5.716 14.944c10.644-4.07 19.8-9.64 27.296-16.81l-11.06-11.564zm-21.756 13.358c-9.304 3.284-19.196 5.76-29.69 7.418l2.496 15.804c11.394-1.798 22.238-4.506 32.518-8.134l-5.324-15.088zm-29.69 7.418a246.885 246.885 0 01-32.222 2.928l.412 15.996a263.025 263.025 0 0034.306-3.12l-2.496-15.804zm-32.436 2.938c-10.834.57-20.628.852-29.388.852v16c9.096 0 19.174-.294 30.228-.876l-.84-15.976zm-29.388.852c-22.192 0-43.496-1.138-63.916-3.408l-1.768 15.904c21.052 2.338 42.948 3.504 65.684 3.504v-16zm-63.916-3.408c-20.462-2.272-40.189-5.538-59.185-9.79l-3.495 15.612c19.596 4.388 39.901 7.746 60.912 10.082l1.768-15.904z" fill="#fff" fill-rule="nonzero"/><defs><linearGradient id="prefix___Linear1" x1="0" y1="0" x2="1" y2="0" gradientUnits="userSpaceOnUse" gradientTransform="scale(-416.035) rotate(39.383 .612 -1.901)"><stop offset="0" stop-color="#7000ff"/><stop offset=".42" stop-color="#4844f6"/><stop offset="1" stop-color="#11a1e9"/></linearGradient><linearGradient id="prefix___Linear2" x1="0" y1="0" x2="1" y2="0" gradientUnits="userSpaceOnUse" gradientTransform="scale(278.1551) rotate(89.403 .341 .673)"><stop offset="0" stop-color="#ffb83d"/><stop offset="1" stop-color="#ffb83d"/></linearGradient></defs></svg>