<svg id="Layer_1" data-name="Layer 1" xmlns="http://www.w3.org/2000/svg" viewBox="0 0 864 114.2919">
  <g>
    <g id="type">
      <path id="type_PathItem_" data-name="type &lt;PathItem&gt;" d="M456.3221,0c.4908.1639.9782.3387,1.4729.49,3.9838,1.2178,6.1239,4.38,5.9063,8.7352a7.9126,7.9126,0,0,1-6.673,7.5969,15.5978,15.5978,0,0,1-5.4761-.0624c-4.1021-.8258-6.476-4.0691-6.4355-8.31A8.0125,8.0125,0,0,1,451.6378.3026c.3339-.08.6579-.2008.9865-.3026Z" style="fill: #121a1a"/>
      <path id="type_CompoundPathItem_" data-name="type &lt;CompoundPathItem&gt;" d="M296.63,90.8813a36.9293,36.9293,0,0,1-14.0222-2.7955,28.1425,28.1425,0,0,1-15.7643-15.8441c-3.8918-9.7818-3.8048-19.6581.7412-29.1973,4.7788-10.0277,13.1716-15.2924,23.9937-16.7805a34.9218,34.9218,0,0,1,20.2163,2.8809c9.9763,4.7753,15.4146,12.9087,16.99,23.6942a34.9806,34.9806,0,0,1-2.1792,19.04c-4.5988,10.812-13.0132,16.7154-24.46,18.5174C300.3267,90.6825,298.47,90.7257,296.63,90.8813ZM278.3381,58.383c0,.66-.0255,1.3206.0038,1.979.4631,10.3867,7.4848,17.4432,17.8667,17.7087,7.5546.1932,13.4-2.8554,16.8316-9.82A22.5811,22.5811,0,0,0,315.068,56.682c-.5867-9.539-6.139-16.8055-15.7526-17.9038-6.6938-.7647-12.6136.8774-16.9645,6.374C279.3006,49.0057,278.2693,53.5531,278.3381,58.383Z" style="fill: #121a1a"/>
      <path id="type_CompoundPathItem_2" data-name="type &lt;CompoundPathItem&gt;" d="M644.8483,90.8819a35.5375,35.5375,0,0,1-15.9324-3.6969A28.2789,28.2789,0,0,1,614.7014,71.22a35.5485,35.5485,0,0,1,.5119-26.7819c4.606-10.8322,13.2062-16.592,24.6781-18.1763a34.7919,34.7919,0,0,1,20.2122,2.9022c9.9654,4.7908,15.4025,12.9306,16.95,23.7225a34.8143,34.8143,0,0,1-2.7286,20.2425c-4.8007,10.12-13.0492,15.5917-23.9608,17.2725C648.5441,90.6815,646.6879,90.7276,644.8483,90.8819ZM626.6043,58.4c0,.66-.0259,1.3206.0038,1.979.4688,10.3821,7.504,17.4383,17.8832,17.6928,7.5552.1852,13.3982-2.8678,16.8222-9.8367a22.5933,22.5933,0,0,0,2.0194-11.57c-.5936-9.5207-6.1288-16.7922-15.7687-17.8892-6.693-.7616-12.6135.8871-16.9585,6.39C627.56,49.0222,626.5318,53.57,626.6043,58.4Z" style="fill: #121a1a"/>
      <path id="type_CompoundPathItem_3" data-name="type &lt;CompoundPathItem&gt;" d="M790.3077,90.8819a35.5379,35.5379,0,0,1-15.9325-3.6966A28.2783,28.2783,0,0,1,760.16,71.22a35.5476,35.5476,0,0,1,.5115-26.7819c4.6057-10.8324,13.2059-16.5923,24.6776-18.1769a34.7925,34.7925,0,0,1,20.2122,2.9019c9.9654,4.7907,15.4028,12.93,16.9505,23.7221A34.8149,34.8149,0,0,1,819.784,73.128c-4.8006,10.12-13.0488,15.5922-23.96,17.2731C794.0035,90.6815,792.1472,90.7276,790.3077,90.8819Zm.0951-12.7639c6.609-.0873,12.0154-2.4988,15.5274-8.3047,2.6518-4.384,3.26-9.2366,2.7562-14.2539a18.9766,18.9766,0,0,0-5.017-11.6495c-4.1138-4.29-9.3181-5.69-15.0465-5.2312-7.0374.5636-12.1333,4.0469-14.95,10.6307a24.5644,24.5644,0,0,0-1.5859,11.5214C772.7781,71.169,780.1927,78.1658,790.4028,78.118Z" style="fill: #121a1a"/>
      <path id="type_PathItem_2" data-name="type &lt;PathItem&gt;" d="M534.6827,48.0815l-12.9059,3.3307c-.6106-1.5179-1.0606-2.9492-1.7375-4.2636a14.9819,14.9819,0,0,0-12.2017-8.3524c-6.0146-.7229-11.4882.4693-15.8176,5.0622a17.9576,17.9576,0,0,0-4.4724,9.1132,25.6778,25.6778,0,0,0,.7473,13.5457c2.6416,7.619,8.9415,11.8311,17.1514,11.5855,8.37-.25,13.5561-4.2308,16.0464-12.3122a4.8023,4.8023,0,0,1,.2384-.4986l13.1312,3.3831c-.43,1.2952-.7729,2.5086-1.2291,3.6779-3.9411,10.1012-11.424,15.8977-21.9709,17.79-7.6234,1.3675-15.1044.8428-22.15-2.6455C480.7732,83.17,475.7264,75.9226,473.789,66.533c-1.9033-9.2239-.995-18.1744,3.95-26.3779,4.9368-8.1909,12.4276-12.6353,21.8008-13.8894a35.487,35.487,0,0,1,19.8742,2.6586C527.5057,32.64,532.36,39.078,534.6786,47.5587A2.5532,2.5532,0,0,1,534.6827,48.0815Z" style="fill: #121a1a"/>
      <path id="type_PathItem_3" data-name="type &lt;PathItem&gt;" d="M447.661,27.6561h13.5906v61.36H447.661Z" style="fill: #121a1a"/>
      <path id="type_PathItem_4" data-name="type &lt;PathItem&gt;" d="M242.0471,39.4729h17.5208V27.5468H242.0471V14.5762h-13.983V39.4729h.0073V39.57h.009v1.7555c0,8.6267-.0532,17.2539.032,25.88a44.2548,44.2548,0,0,0,.7107,7.8661c1.1446,5.9667,4.1062,10.8822,9.808,13.4027a26.0934,26.0934,0,0,0,19.125,1.1787l-3.1156-11.8164a10.4223,10.4223,0,0,1-6.3753.4329,7.2884,7.2884,0,0,1-5.6976-5.6206,17.05,17.05,0,0,1-.5935-4.4212c-.0525-9.1545-.0285-18.3095-.0243-27.4644C241.95,40.385,242.0054,40.0069,242.0471,39.4729Z" style="fill: #121a1a"/>
      <path id="type_PathItem_5" data-name="type &lt;PathItem&gt;" d="M846.4792,39.4729H864V27.5468H846.4792V14.5762h-13.983V39.4729h.0073V39.57h.009v1.7555c0,8.6267-.0532,17.2539.032,25.88a44.2548,44.2548,0,0,0,.7107,7.8661c1.1446,5.9667,4.1062,10.8822,9.808,13.4027a26.0934,26.0934,0,0,0,19.125,1.1787l-3.1156-11.8164a10.4223,10.4223,0,0,1-6.3753.4329A7.2884,7.2884,0,0,1,847,72.6489a17.05,17.05,0,0,1-.5935-4.4212c-.0525-9.1545-.0285-18.3095-.0243-27.4644C846.3822,40.385,846.4375,40.0069,846.4792,39.4729Z" style="fill: #121a1a"/>
      <path id="type_PathItem_6" data-name="type &lt;PathItem&gt;" d="M435.0066,51.852a37.9321,37.9321,0,0,0-1.8591-12.21c-2.1293-6.2441-6.0491-10.7594-12.5335-12.7038a27.494,27.494,0,0,0-12.5485-.6165c-7.0209,1.1707-12.5512,4.6262-16.0963,10.9547a4.1771,4.1771,0,0,1-.4054.5c-3.698-8.0619-10.1351-11.6074-18.66-11.8291-8.1614-.2121-14.8888,2.56-19.7384,9.4191V27.5873h-8.1189c-1.8337-.0038-3.6775,0-5.55,0V89.014h13.7074c0-4.26-.0032-8.4362.0007-12.6118.0069-7.6606-.1329-15.3251.065-22.9807.2531-9.79,6.1718-15.4491,15.3606-15.0318,5.6694.2576,9.5969,3.308,10.8983,8.8121a32.4881,32.4881,0,0,1,.79,7.1837c.08,11.05.0354,22.1012.0354,33.1518v1.4575h13.7971c0-5.7827-.0046-11.461.001-17.1393.0059-6.1635-.1377-12.3324.0678-18.49.3265-9.7911,6.1972-15.376,15.4294-14.977,5.5474.2395,9.2524,3.14,10.67,8.526a20.7256,20.7256,0,0,1,.7482,5.0686c.081,11.7985.07,23.5977.088,35.3966.001.55,0,1.1,0,1.6378h13.8265c.0188-.3326.0456-.5883.0456-.8441C435.0268,76.0667,435.0452,63.9593,435.0066,51.852Z" style="fill: #121a1a"/>
      <path id="type_CompoundPathItem_4" data-name="type &lt;CompoundPathItem&gt;" d="M216.4787,53.71a52.4988,52.4988,0,0,0-.4426-7.2377C214.798,37.86,210.5489,31.3159,202.1845,28.24a37.71,37.71,0,0,0-27.1052.0713c-7.8536,2.9955-12.174,9.167-14.3366,17.29,4.3809,1.0481,8.5893,2.0549,12.827,3.0685.1557-.4586.2666-.7873.3789-1.1159.128-.3741.2452-.7525.387-1.1213A12.3253,12.3253,0,0,1,184.008,38.2a20.2049,20.2049,0,0,1,9.6644.4243,11.5561,11.5561,0,0,1,8.1359,8.1012c.9516,3.04.84,6.1569.7754,9.2823-2.7722-.7311-5.4511-1.5761-8.1885-2.1324-7.4134-1.5066-14.8415-1.7931-22.2073.3218-8.6647,2.488-13.6433,8.7734-13.748,17.4667-.0917,7.6431,3.1042,13.42,10.0865,16.8308a25.11,25.11,0,0,0,10.8869,2.2785c7.5125.092,14.3467-1.805,20.1284-6.8235,1.2225-1.0608,2.4766-2.0844,3.6184-3.0434v8.1129h13.3381V87.3843C216.4982,76.16,216.5229,64.9345,216.4787,53.71Zm-13.9694,12.9-.0066.03c-.8522,8.1395-10.307,13.3179-19.1581,13.3179-5.2845,0-8.1516-1.7993-9.6421-3.9713a7.89,7.89,0,0,1-1.4534-4.4428c-.009-.1723-.0149-.3418-.0149-.5049,0-3.3745.0678-8.6215,13.5505-8.6215.614,0,1.2.0082,1.7725.02.1572.0038.3147.0051.4718.01,7.661.2058,11.5437,1.4437,13.2974,2.2627.0216.0068.0431.012.0647.0186a1.9239,1.9239,0,0,1,.9308.5282,2.4294,2.4294,0,0,1,.25.186c0,.1358-.0093.2684-.0142.4024A2.75,2.75,0,0,1,202.5093,66.61Z" style="fill: #121a1a"/>
      <path id="type_CompoundPathItem_5" data-name="type &lt;CompoundPathItem&gt;" d="M749.024,49.1a29.3671,29.3671,0,0,0-10.78-17.6428c-6.5668-5.082-14.0564-6.3677-22.0891-5.0905a23.128,23.128,0,0,0-15.2806,8.7891,3.135,3.135,0,0,1-.5434.39V4.0986H686.6861V89.0221h13.701v-8.1a4.3769,4.3769,0,0,0,.4475.5219c1.9811,1.8525,3.7547,4.0311,5.9987,5.48,9.6894,6.2575,29.0749,6.7019,38.653-10.1943C750.4061,68.0511,751.0959,58.7006,749.024,49.1Zm-14.52,17.759c-3.0113,7.9772-10.25,12.1613-18.7293,11.0384-4.3263-.5728-8.1874-1.9788-11.0934-5.3938a18.669,18.669,0,0,1-4.04-10.2668c-.15-1.2649-.1933-2.5423-.2542-3.3853.08-4.8023.7552-9.0359,3.237-12.7531,3.673-5.5015,9.12-7.5368,15.4531-7.3752,7.8852.2017,13.7264,4.887,15.9089,12.4764A24.2939,24.2939,0,0,1,734.5038,66.8585Z" style="fill: #121a1a"/>
      <path id="type_PathItem_7" data-name="type &lt;PathItem&gt;" d="M609.3523,26.0552c-7.9246-.7545-16.47,1.7831-22.151,10.58V27.6806H573.7968V89.0277h13.7209v-1.49q0-11.62.0024-23.24c.0028-3.0366-.0667-6.0776.07-9.1088.4492-9.9891,7.6731-17.2622,17.91-16.5543.7861.0544,1.573.1314,2.3643.2148Z" style="fill: #121a1a"/>
    </g>
    <g id="logoMark">
      <path id="logoMark_CompoundPathItem_" data-name="logoMark &lt;CompoundPathItem&gt;" d="M123.0193,77.7607l-.096-.1707a4.01,4.01,0,0,0-.292-.4465A315.28,315.28,0,0,1,82.347,5.3967a4.0527,4.0527,0,0,0-.2319-.4872c-.0783-.14-.1758-.3142-.2835-.5071a4.2157,4.2157,0,0,0-3.68-2.1617H45.4034a4.2157,4.2157,0,0,0-3.68,2.1617c-.1077.1929-.2052.3673-.2835.5071a4.0527,4.0527,0,0,0-.2319.4872A315.2837,315.2837,0,0,1,.9239,77.1435a4.0108,4.0108,0,0,0-.2921.4465l-.0959.1707a4.1709,4.1709,0,0,0-.0021,4.0869l17.0065,30.29a4.2215,4.2215,0,0,0,3.681,2.1548h0a3.996,3.996,0,0,0,.5541-.0391,292.4,292.4,0,0,1,80.0044,0,3.9945,3.9945,0,0,0,.554.0391h0a4.2216,4.2216,0,0,0,3.6811-2.1548l17.0065-30.29A4.1712,4.1712,0,0,0,123.0193,77.7607ZM94.7778,86.347a19.2919,19.2919,0,0,1-13.177,8.941,117.2029,117.2029,0,0,1-19.8232,1.685,117.2029,117.2029,0,0,1-19.8232-1.685,19.2921,19.2921,0,0,1-13.1771-8.941,19.5044,19.5044,0,0,1-1.9836-15.9756A98.3947,98.3947,0,0,1,47.1819,34.348a19.4334,19.4334,0,0,1,29.1913,0A98.3919,98.3919,0,0,1,96.7614,70.3714,19.5041,19.5041,0,0,1,94.7778,86.347Z" style="fill: #d2402a"/>
      <ellipse id="logoMark_PathItem_" data-name="logoMark &lt;PathItem&gt;" cx="61.7776" cy="66.1202" rx="12.2477" ry="12.5942" style="fill: #d2402a"/>
    </g>
  </g>
</svg>
