<?xml version="1.0" encoding="UTF-8" standalone="no"?>
<svg
   xmlns:dc="http://purl.org/dc/elements/1.1/"
   xmlns:cc="http://creativecommons.org/ns#"
   xmlns:rdf="http://www.w3.org/1999/02/22-rdf-syntax-ns#"
   xmlns:svg="http://www.w3.org/2000/svg"
   xmlns="http://www.w3.org/2000/svg"
   xmlns:sodipodi="http://sodipodi.sourceforge.net/DTD/sodipodi-0.dtd"
   xmlns:inkscape="http://www.inkscape.org/namespaces/inkscape"
   width="156"
   height="30"
   viewBox="0 0 156 30"
   fill="none"
   version="1.1"
   id="svg37"
   sodipodi:docname="invertase.svg"
   inkscape:version="1.0.1 (c497b03c, 2020-09-10)">
  <metadata
     id="metadata41">
    <rdf:RDF>
      <cc:Work
         rdf:about="">
        <dc:format>image/svg+xml</dc:format>
        <dc:type
           rdf:resource="http://purl.org/dc/dcmitype/StillImage" />
      </cc:Work>
    </rdf:RDF>
  </metadata>
  <sodipodi:namedview
     pagecolor="#ffffff"
     bordercolor="#666666"
     borderopacity="1"
     objecttolerance="10"
     gridtolerance="10"
     guidetolerance="10"
     inkscape:pageopacity="0"
     inkscape:pageshadow="2"
     inkscape:window-width="1294"
     inkscape:window-height="958"
     id="namedview39"
     showgrid="false"
     inkscape:zoom="4.7948718"
     inkscape:cx="74.245989"
     inkscape:cy="15"
     inkscape:window-x="224"
     inkscape:window-y="134"
     inkscape:window-maximized="0"
     inkscape:current-layer="svg37" />
  <g
     clip-path="url(#clip0_531_2313)"
     id="g30"
     style="fill:#000000">
    <path
       d="M30.8981 11.3371L26.0428 8.62905V3.19507L20.3074 0L15.4521 2.70808L10.5967 0L4.85533 3.19507V8.64686L0 11.3549V17.7688L4.85533 20.4769V25.8693L10.5967 29.0703L15.4521 26.3622L20.3074 29.0703L26.0428 25.8693V20.4888L30.8981 17.7807V11.3371ZM11.4768 16.7236V12.3467L15.446 10.1316L19.4092 12.3467V16.7236L15.446 18.9328L11.4768 16.7236ZM16.3321 4.20465L20.2953 1.99542L24.2584 4.20465V8.60529L20.2953 10.8205L16.3321 8.60529V4.20465ZM6.62146 4.20465L10.5907 1.99542L14.5539 4.20465V8.60529L10.5907 10.8205L6.62146 8.60529V4.20465ZM1.76613 12.3467L5.72929 10.1316L9.69853 12.3467V16.7236L5.71108 18.9447L1.76613 16.7474V12.3467ZM10.5967 27.0571L6.62751 24.8479V20.465L10.5967 18.2558L14.5599 20.465V24.8479L10.5967 27.0571ZM20.3074 27.0571L16.3442 24.8479V20.465L20.3074 18.2558L24.2706 20.465V24.8479L20.3074 27.0571ZM29.132 16.7592L25.187 18.9566L21.1996 16.7355V12.3586L25.1627 10.1434L29.132 12.3586V16.7592Z"
       fill="white"
       id="path10"
       style="fill:#000000" />
    <path
       d="M49.9075 7.39355V21.9079H48.0868V7.39355H49.9075Z"
       fill="white"
       id="path12"
       style="fill:#000000" />
    <path
       d="M65.2557 7.39355V21.9079H63.5199L55.4358 10.5114H55.2901V21.9079H53.4694V7.39355H55.2112L63.3196 18.8198H63.4653V7.39355H65.2557Z"
       fill="white"
       id="path14"
       style="fill:#000000" />
    <path
       d="M69.4551 7.39355L73.8553 19.6096H74.0313L78.4314 7.39355H80.3128L74.8506 21.9079H73.0177L67.5555 7.39355H69.4551Z"
       fill="white"
       id="path16"
       style="fill:#000000" />
    <path
       d="M82.6312 21.9079V7.39355H91.5832V8.95544H84.4277V13.8609H91.1038V15.4168H84.4277V20.346H91.7107V21.9079H82.6312Z"
       fill="white"
       id="path18"
       style="fill:#000000" />
    <path
       d="M94.8241 21.9082V7.39386H99.8372C100.823 7.36201 101.802 7.56586 102.69 7.98774C103.394 8.33365 103.971 8.88579 104.341 9.56744C104.707 10.2776 104.89 11.0645 104.875 11.8598C104.891 12.6495 104.707 13.4308 104.341 14.1344C103.969 14.8063 103.395 15.3497 102.696 15.6903C101.812 16.0942 100.842 16.2856 99.8676 16.2486H95.8134V14.6629H99.8069C100.464 14.6886 101.118 14.5731 101.725 14.3244C102.178 14.1269 102.55 13.7859 102.781 13.3564C103.011 12.8903 103.123 12.3771 103.108 11.8598C103.122 11.3324 103.007 10.8094 102.775 10.3335C102.546 9.89057 102.172 9.53524 101.713 9.32396C101.104 9.06193 100.441 8.94002 99.7765 8.96763H96.6206V21.9201L94.8241 21.9082ZM101.81 15.3756L105.451 21.9082H103.363L99.7705 15.3756H101.81Z"
       fill="white"
       id="path20"
       style="fill:#000000" />
    <path
       d="M107.048 8.95544V7.39355H118.173V8.95544H113.512V21.9079H111.691V8.95544H107.048Z"
       fill="white"
       id="path22"
       style="fill:#000000" />
    <path
       d="M119.824 21.9079H117.942L123.405 7.39355H125.256L130.718 21.9079H128.83L124.4 9.69186H124.285L119.824 21.9079ZM120.522 16.2364H128.108V17.7983H120.522V16.2364Z"
       fill="white"
       id="path24"
       style="fill:#000000" />
    <path
       d="M141.114 11.0221C141.079 10.6831 140.965 10.3565 140.781 10.0672C140.597 9.77794 140.347 9.53374 140.052 9.35332C139.373 8.9388 138.582 8.73202 137.782 8.75944C137.192 8.74629 136.605 8.85137 136.058 9.06826C135.607 9.24928 135.214 9.54442 134.917 9.92344C134.647 10.2828 134.505 10.7186 134.511 11.1646C134.499 11.5179 134.599 11.8662 134.796 12.1624C134.988 12.4402 135.239 12.675 135.53 12.8513C135.828 13.0293 136.143 13.1784 136.471 13.2967C136.799 13.4095 137.078 13.5045 137.375 13.5758L138.868 13.9915C139.307 14.1025 139.739 14.2393 140.161 14.4013C140.648 14.5795 141.109 14.819 141.533 15.1139C141.974 15.4172 142.342 15.8102 142.613 16.2661C142.913 16.7913 143.06 17.387 143.038 17.9883C143.054 18.7381 142.843 19.4758 142.431 20.1084C141.982 20.7709 141.351 21.2958 140.61 21.6228C139.695 22.0169 138.702 22.2076 137.703 22.1811C136.761 22.2047 135.824 22.0327 134.954 21.6763C134.228 21.3789 133.599 20.8945 133.133 20.2747C132.686 19.6613 132.425 18.9366 132.38 18.1843H134.238C134.267 18.6845 134.465 19.161 134.802 19.5383C135.146 19.9055 135.581 20.1796 136.064 20.3341C136.594 20.5106 137.15 20.5989 137.709 20.5954C138.343 20.6038 138.971 20.4908 139.56 20.2629C140.066 20.0714 140.511 19.7541 140.853 19.3424C141.174 18.9503 141.343 18.4606 141.333 17.9586C141.354 17.5258 141.206 17.1013 140.92 16.7709C140.619 16.448 140.248 16.1962 139.833 16.0345C139.36 15.8361 138.873 15.6694 138.377 15.5356L136.556 15.0249C135.54 14.7727 134.598 14.2952 133.801 13.6293C133.466 13.3287 133.202 12.9606 133.027 12.5504C132.852 12.1403 132.77 11.6979 132.787 11.2537C132.77 10.4895 133.009 9.7408 133.467 9.1217C133.935 8.49982 134.563 8.01017 135.288 7.70234C136.097 7.35879 136.972 7.18675 137.855 7.19754C138.731 7.18173 139.601 7.35192 140.404 7.6964C141.105 7.99538 141.715 8.46578 142.176 9.06233C142.61 9.62907 142.852 10.3143 142.868 11.0221H141.114Z"
       fill="white"
       id="path26"
       style="fill:#000000" />
    <path
       d="M146.005 21.9079V7.39355H154.957V8.95544H147.802V13.8609H154.478V15.4168H147.802V20.346H155.085V21.9079H146.005Z"
       fill="white"
       id="path28"
       style="fill:#000000" />
  </g>
  <defs
     id="defs35">
    <clipPath
       id="clip0_531_2313">
      <rect
         width="155.073"
         height="29.0406"
         fill="white"
         id="rect32" />
    </clipPath>
  </defs>
</svg>
